<svg version="1" xmlns="http://www.w3.org/2000/svg" width="933.333" height="933.333" viewBox="0 0 700.000000 700.000000"><path d="M329 1c-16.4 1.1-34.7 3.5-49.5 6.6C140.9 36.2 33.3 145.4 6.6 284.5c-8 41.6-8 89.5 0 131C25.1 511.7 82.5 595.2 166 647.1c68.1 42.5 149.6 59.9 230.3 49.4 99.3-13 189-69.3 245-153.6 31.3-47.2 49.8-98.2 56.2-155.4 2.3-19.9 2.3-54.8.1-75C684.5 195.7 616.1 95.3 512 40.2c-30.2-16-67.2-28.6-102.5-34.8C387.6 1.5 351.1-.5 329 1zm-23 84c-1.3 2.4-1 62.6.4 65.2.7 1.5.4 1.8-1.6 1.8-1.3 0-3.4-.7-4.6-1.6-2.2-1.5-2.2-1.6-2.2-32.6 0-34.3.1-34.8 6.2-34.8 2.6 0 2.8.2 1.8 2zm67.8-.8c1.7 1.7 1.7 63.9 0 65.6-.9.9-9.5 1.2-32.4 1.2-27.1 0-31.5-.2-32.8-1.6-1.4-1.3-1.6-5.7-1.6-32.8 0-22.9.3-31.5 1.2-32.4.9-.9 9.6-1.2 32.8-1.2 23.2 0 31.9.3 32.8 1.2zM297 86.6c-.6 1.4-1 15-1 31.2 0 23 .3 29.2 1.4 31.4l1.5 2.8H295c-2.9 0-4.2-.5-5-1.9-.6-1.2-1-13.3-1-32.2 0-33.3.1-33.9 6.1-33.9 2.6 0 2.8.2 1.9 2.6zm-8.8 31c-.2 30.1-.1 32.8 1.5 34.7 1.8 2 1.7 2-2.7 1.4-2.5-.3-5-1.3-5.7-2.3-1-1.4-1.3-9-1.3-32.1 0-29 .1-30.4 2-32.3 1.1-1.1 3-2 4.3-2h2.2l-.3 32.6zM279 119c0 30.7.1 32.1 2 34l2 2h-4.3c-2.4 0-4.8-.5-5.5-1.2-1.7-1.7-1.7-63.9 0-65.6.7-.7 2.2-1.2 3.5-1.2h2.3v32zm-9 1v32.1l2.5 2.4 2.4 2.5h-4.4c-7.8 0-7.6 1-7.3-34.8l.3-31.6 2.5-1.3c1.4-.7 2.8-1.3 3.3-1.3.4 0 .7 14.4.7 32zm136-31c-14.6.3-27.1.9-27.7 1.3-.9.5-1.3.3-1.3-.7 0-1.4 3.2-1.6 27.8-1.4l27.7.2-26.5.6zm-144.5 34c0 24.8.3 32.2 1.3 33.2s8.1 1.4 28.5 1.8l27.2.6-30.7.2-30.7.2-1.5-2.2c-1.4-1.9-1.6-6.7-1.6-32.5 0-32.5.1-33.3 5.3-33.3h2.2v32zm153.7-31c-26.6.5-28.5.6-29.8 2.4-1.1 1.6-1.4 7.8-1.4 33.3 0 28.6-.1 31.3-1.7 31.3-.9 0-2.5-.7-3.5-1.7-1.7-1.5-1.8-3.8-1.8-32 0-19.1.4-31.2 1-32.4 1-1.8 2.3-1.9 33.3-1.7l32.2.2-28.3.6zM253 124.9c0 27.7.2 32.2 1.6 33.5.8.9 1.6 1.7 1.7 1.8.1.1 12.4.5 27.2.8l27 .6-30 .2c-25.8.2-30.4 0-32.3-1.4-2.2-1.5-2.2-1.6-2.2-32.9 0-27.2.2-31.6 1.6-32.9.8-.9 2.4-1.6 3.5-1.6 1.8 0 1.9 1.1 1.9 31.9zM424 94c-15.1.3-27.6.7-27.7.8-.1.1-.9.9-1.7 1.8-1.4 1.3-1.6 5.8-1.6 33.5 0 34 0 33.7-4.8 30.3-2.2-1.5-2.2-1.6-2.2-32.9 0-27.2.2-31.6 1.6-32.9 1.3-1.4 5.5-1.6 32.7-1.4l31.2.2-27.5.6zm-180 32.9c0 29.6.1 30.9 2.1 33.4l2 2.7 27.7.3 27.7.2-31.7.3c-27.7.2-31.9 0-33.2-1.4-2.4-2.3-2.4-60.8 0-64.2.8-1.2 2.4-2.2 3.5-2.2 1.8 0 1.9 1 1.9 30.9zM460.5 97c.4.7-9.1 1-27.9 1-28.3 0-28.5 0-30 2.2-1.4 1.9-1.6 6.8-1.6 33V164h-2.5c-1.4 0-2.9-.8-3.5-1.9-.6-1.2-1-13.3-1-32.2 0-26.7.2-30.5 1.7-32.1 1.5-1.7 3.9-1.8 32.9-1.8 19.8 0 31.5.4 31.9 1zM236 130.5c0 30.2.1 31.6 2 33.5 1.9 1.9 3.3 2 29.8 2 18.2 0 27.2.4 26.2 1-.9.6-13.7 1-31 1-25.2 0-29.9-.2-31.8-1.6-2.2-1.5-2.2-1.6-2.2-32.6 0-27.6.2-31.4 1.7-33 .9-1 2.4-1.8 3.5-1.8 1.7 0 1.8 1.5 1.8 31.5zM468.5 100c.4.7-9 1-27.4 1h-28l-2 2.6c-2 2.6-2.1 3.8-2.1 33.6v30.9l-2.2-.6c-1.3-.4-2.7-1.1-3.3-1.7-.6-.5-1-12.7-1-32.4 0-30.1.1-31.6 1.9-33 1.6-1.1 7.8-1.4 32.7-1.4 19.5 0 31 .4 31.4 1zM228 134.2c0 27.6.2 31.4 1.7 33 1.5 1.7 3.8 1.8 30 1.8 18.7 0 28.2.3 27.8 1-.4.6-12.2 1-32 1-27.2 0-31.6-.2-32.9-1.6-1.4-1.3-1.6-5.7-1.6-32.8 0-33 .1-33.6 4.7-33.6h2.3v31.2zM477.5 104c.4.7-9.2 1-27.9 1-27.3 0-28.7.1-30.6 2-1.9 1.9-2 3.3-2 33 0 29.2-.1 31-1.8 31-4.1 0-4.2-1.2-4.2-34 0-23.2.3-31.9 1.2-32.8 1.5-1.5 64.4-1.7 65.3-.2zm-258.3 33.5c.3 28.6.5 31.6 2.1 33.2 1.6 1.6 4.5 1.8 30.5 2.1 18.4.2 28.1.6 27.2 1.2-.9.6-14.8 1-32.2 1-26.5 0-30.9-.2-32.2-1.6-1.4-1.3-1.6-5.7-1.6-32.9 0-31.3 0-31.4 2.2-32.9 1.2-.9 2.6-1.6 3-1.6.4 0 .8 14.2 1 31.5zm265.4-30c1.7 1.3-1.4 1.4-26.8 1.5-27.4 0-28.9.1-30.8 2-1.9 1.9-2 3.3-2 33 0 26.2-.2 31-1.4 31-.8 0-2.2-.7-3-1.6-1.4-1.3-1.6-5.7-1.6-32.9 0-31.3 0-31.4 2.2-32.9 3.2-2.3 60.4-2.4 63.4-.1zm-273.4 34.1c.3 29.9.4 31.6 2.2 33 1.6 1.1 7.4 1.4 30.3 1.4 25.7 0 31.6.5 26.7 2.4-.9.3-15.2.6-31.9.6-26.3 0-30.6-.2-31.9-1.6-1.4-1.3-1.6-5.7-1.6-32.9 0-31.3 0-31.4 2.2-32.9 1.2-.9 2.6-1.6 3-1.6.4 0 .8 14.2 1 31.6zm281.4-30.1c1.7 1.3-1.2 1.4-25.9 1.5-27.4 0-30.9.4-32.9 3.4-.4.6-.8 14.9-.8 31.8 0 21.1-.3 30.8-1.1 30.8-.6 0-1.9-.5-3-1-1.8-1-1.9-2.5-1.9-33 0-31.8 0-31.9 2.2-33.4 3.2-2.3 60.4-2.4 63.4-.1zm-289.4 34.6c.3 29.4.4 31.1 2.2 32.5 1.6 1.1 7.5 1.4 30.9 1.4 25.6 0 28.8.2 27.7 1.5-1.9 2.3-63.1 2.2-65.4-.1-1.4-1.3-1.6-5.7-1.6-32.4s.2-31.1 1.6-32.4c4.1-4.2 4.3-3.2 4.6 29.5zm297.2-30.5c4.9 1.9-1.1 2.4-27.3 2.4h-29l-2 2.6c-2 2.6-2.1 3.8-2.1 32.5 0 25.4-.2 29.9-1.4 29.9-.8 0-2.2-1-3-2.2-1.4-1.9-1.6-6.7-1.6-31.8s.2-29.9 1.6-31.8c1.5-2.2 1.6-2.2 32.4-2.2 16.9 0 31.5.3 32.4.6zm8.3 5.6c1.6 1.7.3 1.8-27.3 1.8-24.6 0-29.3.2-31.2 1.6-2.2 1.5-2.2 1.6-2.2 32.5 0 26.1-.2 30.9-1.4 30.9-.8 0-2.2-.7-3-1.6-1.4-1.4-1.6-5.4-1.4-33.2l.3-31.6 2.5-1.3c1.9-1 9.5-1.3 32.2-1.1 26.8.3 29.9.5 31.5 2zM196 150.5c0 29.2.1 30.6 2 32.5 1.9 1.9 3.3 2 30.5 2 25.8 0 31.8.5 26.9 2.4-2.8 1.1-61.4.7-63.5-.4-1.8-1-1.9-2.5-1.9-32.8 0-33 .1-34.2 4.2-34.2 1.7 0 1.8 1.8 1.8 30.5zm-8 3.8c0 25.8.2 30.6 1.6 32.5 1.5 2.2 1.7 2.2 31 2.2 18.2 0 29.4.4 29.4 1 0 2.6-5.1 3-34.4 3-30.4 0-30.5 0-32-2.2-1.4-1.9-1.6-6.7-1.6-32.5 0-29 .1-30.4 2-32.3 1.1-1.1 2.5-2 3-2 .6 0 1 10.8 1 30.3zM515.1 125c4.7 2.6 1 3-26.9 3-27.6 0-28.9.1-31 2-2.2 2.1-2.2 2.5-2.2 32.5 0 19.7-.4 30.5-1 30.5-.5 0-1.9-.9-3-2-1.9-1.9-2-3.3-2-32.3 0-31.1.2-32.6 4-34 2.9-1 60.1-.7 62.1.3zM181 160.2c0 26.6.2 30.4 1.7 32 1.5 1.7 3.8 1.8 31 1.8 16.1 0 29.3.4 29.3.8 0 2.9-2.9 3.2-33.6 3.2-27.1 0-31.5-.2-32.8-1.6-1.4-1.3-1.6-5.6-1.6-32 0-19.1.4-31.3 1-32.5.6-1 2-1.9 3-1.9 1.9 0 2 .8 2 30.2zm342.8-28c.3 1.7-1.6 1.8-29.2 1.8-29.3 0-29.5 0-31 2.2-1.4 1.9-1.6 6.7-1.6 32.1 0 27.7-.1 29.8-1.7 29.5-4-.7-4.3-4-4.1-34.9.2-23.4.6-29.9 1.7-31.3 1.2-1.5 4.5-1.6 33.5-1.4 29.6.3 32.1.4 32.4 2zM174 166.6l.5 30.8 2.5 1.3c1.8.9 10 1.3 30.8 1.3 27.6 0 32.2.5 25.6 3-1.4.6-15.2 1-31.7 1-24.9 0-29.6-.2-31.5-1.6-2.2-1.5-2.2-1.6-2.2-32.6 0-27.7.2-31.3 1.7-33 .9-1 2.1-1.7 2.7-1.5.7.2 1.3 10.6 1.6 31.3zM530.5 137c1.8 2 1.7 2-26.9 2-28.3 0-31.8.3-33.8 3.4-.4.6-.8 14.5-.8 30.8 0 29.2 0 29.8-2 29.8-3.7 0-4.1-3.9-3.8-35.3.3-28.2.4-29.9 2.2-31.3 1.6-1.1 7.8-1.4 32.6-1.4 29.4 0 30.8.1 32.5 2zm-363.7 34.5c.2 26 .4 30.1 1.9 31.7 1.5 1.7 3.9 1.8 31 1.8 24.4 0 29.3.2 29.3 1.4 0 .8-.7 1.7-1.6 2-.9.3-15.4.6-32.4.6-26.7 0-31.1-.2-32.4-1.6-1.4-1.3-1.6-5.6-1.6-31.7s.2-30.6 1.6-32.5c3.5-5.1 3.9-2.5 4.2 28.3zm370-29.3c.7.7 1.2 1.5 1.2 2 0 .4-13.3.8-29.6 1l-29.6.3-1.9 2.4c-1.8 2.2-1.9 4.3-1.9 31.7 0 17.4-.4 29.4-.9 29.4s-1.7-.7-2.5-1.6c-1.4-1.3-1.6-5.7-1.6-32.1 0-27.1.2-30.9 1.7-32.5 1.5-1.7 3.9-1.8 32.8-1.8 22.8 0 31.4.3 32.3 1.2zM160 177c0 28.7.1 30.1 2 32 1.9 1.9 3.3 2 31.5 2 16.2 0 29.5.4 29.5.8 0 2.9-2.9 3.2-34 3.2-23.2 0-31.9-.3-32.8-1.2-1.7-1.7-1.7-63.9 0-65.6 3.6-3.6 3.8-2 3.8 28.8zm383.8-28.8c3.6 3.6 2 3.8-28.5 3.8-26.2 0-29.9.2-31.5 1.7-1.7 1.5-1.8 3.8-1.8 31.5 0 30.6-.2 32.2-3.8 28.6-1.7-1.7-1.7-63.9 0-65.6.9-.9 9.6-1.2 32.8-1.2 23.2 0 31.9.3 32.8 1.2zm-168.2 8.6c-.9.8-5.9-1.1-6.3-2.4-.2-.5 1.1-1.7 2.9-2.5 3.3-1.4 3.3-1.4 3.6 1.4.2 1.6.1 3.2-.2 3.5zm-220.3 57.9c1.6 1.6 4.7 1.8 32 2.3l30.2.5-2.3 2.3-2.3 2.3-30.9-.3c-23.7-.2-31.2-.6-32.2-1.6-1-1-1.3-8.3-1.3-32.8 0-30.4.1-31.6 2-33 2-1.5 2-1.3 2.5 28.5.5 27.1.7 30.2 2.3 31.8zM367.5 154c.8 1.3-3.5 1.3-5.5 0-1.1-.7-.7-1 1.7-1 1.7 0 3.5.4 3.8 1zm181.6 0c1 .6 1.9 1.7 1.9 2.5 0 1.3-4.2 1.5-29.3 1.5-24.9 0-29.6.2-31.5 1.6-2.2 1.5-2.2 1.6-2.2 31.5 0 25.6-.2 29.9-1.5 29.9-3.1 0-3.5-3.9-3.5-34.1 0-26.7.2-30.5 1.7-32.1 1.5-1.7 3.8-1.8 32-1.8 19.1 0 31.2.4 32.4 1zM147 189.5c0 28.2.1 29.6 2 31.5 1.9 1.9 3.3 2 32 2 16.5 0 30 .3 30 .7 0 .3-.7 1.5-1.7 2.5-1.5 1.7-3.9 1.8-32.9 1.8-31.2 0-31.3 0-32.8-2.2-1.4-1.9-1.6-6.7-1.6-31.8s.2-29.9 1.6-31.8c.8-1.2 1.9-2.2 2.5-2.2.5 0 .9 11.7.9 29.5zm408.8-28.3c3.6 3.6 2 3.8-28.6 3.8-29.1 0-29.9.1-31.8 2.1-1.8 2-1.9 4.2-2.2 31.6-.3 29.2-.3 29.5-2.2 27.8-1.9-1.7-2-3.3-2-32.2 0-19.1.4-31.2 1-32.4 1-1.8 2.5-1.9 32.8-1.9 23.4 0 32.1.3 33 1.2zm5.6 6.4c.9.8 1.6 2.2 1.6 3 0 1.2-4.7 1.4-30 1.4-28.7 0-30.1.1-32 2-1.9 1.9-2 3.3-2 31 0 15.9-.4 29-.8 29-2.9 0-3.2-2.9-3.2-33.6 0-31.2 0-31.3 2.2-32.8 3.4-2.4 61.9-2.4 64.2 0zM141 196.4v29.5l2.6 2c2.6 2 3.8 2.1 32 2.1 16.2 0 29.4.3 29.4.7 0 .3-.7 1.5-1.7 2.5-1.5 1.7-3.8 1.8-32 1.8-19.1 0-31.2-.4-32.4-1-1.8-1-1.9-2.5-1.9-33.4 0-17.7.3-32.6.7-32.9.3-.4 1.2-.7 2-.7 1 0 1.3 5.6 1.3 29.4zm425.8-21.8c1.2.8 2.2 2.2 2.2 3 0 1.2-4.6 1.4-30.4 1.4h-30.5l-2 2.6c-2 2.6-2.1 3.9-2.1 31.1 0 22.3-.3 28.4-1.2 28.1-1-.4-1.4-8-1.6-32.9-.2-29.6-.1-32.5 1.5-33.7 1.3-.9 9.3-1.2 31.8-1.2 25.6 0 30.4.2 32.3 1.6zM135 202.8c0 24.4.2 29.1 1.6 31 1.5 2.2 1.6 2.2 32 2.2 29.6 0 30.4.1 30.4 2 0 1-.9 2.4-1.9 3-1.2.6-13.2 1-31.8 1-25.4 0-30.2-.2-32.1-1.6-2.2-1.5-2.2-1.6-2.2-32.8 0-30.7.3-33.6 3.2-33.6.4 0 .8 12.9.8 28.8zm436.8-21.2c1.2.8 2.2 2.2 2.2 3 0 1.2-4.5 1.4-30 1.4h-30.1l-2.4 2.5-2.5 2.4v28.6c0 25.8-.5 31.8-2.4 26.9-.3-.9-.6-15.5-.6-32.4 0-30.8 0-30.9 2.2-32.4 1.9-1.4 6.7-1.6 31.8-1.6s29.9.2 31.8 1.6zm-440.4 59.3c1.9 2 2.7 2.1 32.3 2.1 25.6 0 30.3.2 30.3 1.4 0 .8-.7 2.2-1.6 3-1.3 1.4-5.6 1.6-32 1.6-19.1 0-31.3-.4-32.5-1-1.8-1-1.9-2.5-1.9-32.8 0-24.1.3-32.1 1.3-33.1s1.3 4.6 1.7 27.7c.5 26.7.7 29.2 2.4 31.1zm-5.5 7.4c1.2 1.5 4.7 1.7 32.2 1.7 29.1 0 30.9.1 30.9 1.8 0 4.1-1.2 4.2-34 4.2-23.2 0-31.9-.3-32.8-1.2-1.8-1.8-1.7-63.9.1-65.7 1-1 1.3 4.7 1.7 28.2.4 22.9.8 29.8 1.9 31zm451.9-59.1c.7.7 1.2 2 1.2 3 0 1.7-1.8 1.8-30.5 1.8-29.2 0-30.6.1-32.5 2-1.9 1.9-2 3.3-2 30.6 0 22.4-.3 28.5-1.2 28.2-1.8-.6-2.4-63.4-.7-65.4 1.6-1.9 63.8-2.1 65.7-.2zm4 7.4c1.2.8 2.2 2.2 2.2 3 0 1.2-4.5 1.4-29.5 1.4-19.8 0-30.2.4-31.9 1.1-1.4.7-3 2.5-3.6 4.2-.6 1.8-1 13.7-1 29.9 0 17.7-.3 26.7-1 26.3-.6-.4-1-12.5-1-33 0-29.8.1-32.5 1.8-33.4 1-.6 13.2-1.1 31.7-1.1 25.6 0 30.4.2 32.3 1.6zm-459.9 59.5c2.2 1.8 4.3 1.9 32.2 1.9 29.1 0 29.9.1 29.9 2 0 1-.9 2.4-1.9 3-1.2.6-13.2 1-31.8 1-25.4 0-30.2-.2-32.1-1.6-2.2-1.5-2.2-1.6-2.2-32.8 0-23.6.3-31.5 1.3-32.5s1.3 4.6 1.7 27.9l.5 29.2 2.4 1.9zm464.9-51.9c.7.7 1.2 2 1.2 3 0 1.6-2.2 1.7-31.1 2-29.4.3-31.1.4-32.5 2.2-1.1 1.6-1.4 7.4-1.4 30.3 0 25.7-.5 31.6-2.4 26.7-.3-.9-.6-15.2-.6-31.9 0-26.3.2-30.6 1.6-31.9 1.3-1.4 5.7-1.6 32.8-1.6 22.9 0 31.5.3 32.4 1.2zm-470.4 58.7c1.9 2 2.7 2.1 32.8 2.1 21.1 0 30.8.3 30.8 1.1 0 .6-.5 1.9-1 3-1 1.8-2.5 1.9-32.8 1.9-23.4 0-32.1-.3-33-1.2-1.4-1.4-1.8-63.9-.4-65.2.4-.4.9 12 1.2 27.7.5 26.2.7 28.7 2.4 30.6zm475-49.7c.9 1.2 1.6 2.6 1.6 3 0 .5-13.9.8-30.9.8-28.9 0-31 .1-33.2 1.9l-2.4 1.9-.3 28.8c-.2 18.2-.7 28.3-1.2 27.4-.6-.9-1-15.1-1-32.2 0-26.5.2-30.9 1.6-32.2 1.3-1.4 5.7-1.6 32.9-1.6 31.3 0 31.4 0 32.9 2.2zm-479 58.4c1.6 1.1 7.8 1.4 32.8 1.4 26 0 30.8.2 30.8 1.4 0 .8-.7 2.2-1.6 3-1.3 1.4-5.7 1.6-32.9 1.6-31.3 0-31.4 0-32.9-2.2-1.4-1.9-1.6-6.6-1.6-31.6 0-21.6.3-29.9 1.3-31.5 1-1.8 1.3 3 1.7 27.1.5 27.6.6 29.4 2.4 30.8zm482.4-51.4c.7.7 1.2 2 1.2 3 0 1.6-2.2 1.7-31.1 2l-31.1.3-1.9 2.4c-1.8 2.2-1.9 4.3-1.9 30.5 0 18.5-.4 27.6-1 26.6-.6-.9-1-14.1-1-32.2 0-26.5.2-30.9 1.6-32.2 1.3-1.4 5.7-1.6 32.8-1.6 22.9 0 31.5.3 32.4 1.2zm-486.4 59.4c1.6 1.1 7.8 1.4 32.8 1.4 21.1 0 30.8.3 30.8 1.1 0 .6-.5 1.9-1 3-1 1.8-2.5 1.9-32.8 1.9-23.4 0-32.1-.3-33-1.2-1.4-1.4-1.8-63.9-.4-65.2.4-.4.9 12.4 1.2 28.4.5 27.4.6 29.2 2.4 30.6zm265.5-50.1c24.1 5.1 43.9 15.5 60.9 32 18.8 18 30.9 40.1 35.9 65.2 2.1 10.8 2.3 33.7.4 44.3-4.5 25.5-17.3 49.2-36.3 67.5-16.7 16.2-34.2 25.6-58.8 31.6-13.3 3.2-38.1 3.3-51.6.1-25.3-5.9-43.3-15.9-61-33.6-17.8-17.8-28.6-37.8-34-62.8-2.5-11.6-2.5-36.1 0-47.8 2.1-9.7 6.6-23.2 10.3-30.5 7.5-14.8 22.1-32.7 34.7-42.4 17-13.1 38.4-22.1 59.8-25.1 8.8-1.2 30.9-.4 39.7 1.5zm224.5-.9c.9.8 1.6 2.4 1.6 3.5 0 1.8-1.1 1.9-31.3 1.9-25.5 0-31.7.3-33.3 1.4-1.8 1.3-1.9 3.2-2.4 29.8l-.6 28.3-.2-32.1c-.1-23.8.1-32.3 1-33.2.9-.9 9.5-1.2 32.4-1.2 27.1 0 31.5.2 32.8 1.6zm-493.7 58.3c2.5 2 3.8 2.1 32.9 2.1 28.6 0 30.4.1 30.4 1.8 0 4.1-1.2 4.2-34 4.2-23.2 0-31.9-.3-32.8-1.2-1.4-1.4-1.8-62.9-.4-64.2.4-.4.8 11.8 1 27.3l.2 28 2.7 2zm496.5-50.2c1 .9 1.8 2.4 1.8 3.5 0 1.7-1.5 1.8-30.9 1.8-28.9 0-31 .1-33.2 1.9-2.4 1.9-2.4 2-2.9 29.8l-.6 27.8-.2-31.4c-.2-28.1 0-31.6 1.5-33.3 1.5-1.7 3.8-1.8 32.1-1.8 27 0 30.8.2 32.4 1.7zm-500.3 58.4c2.2 1.8 4.3 1.9 33.2 1.9 28.2 0 30.9.1 30.9 1.7 0 .9-.7 2.5-1.7 3.5-1.5 1.7-3.8 1.8-32.1 1.8-27 0-30.8-.2-32.4-1.7-1.7-1.5-1.8-3.7-1.6-33.2l.2-31.6.6 27.8c.5 27.8.5 27.9 2.9 29.8zm503.9-49.9c.7.7 1.2 2.2 1.2 3.5v2.3h-31.8c-29.5 0-32 .1-33.5 1.8-1.4 1.6-1.7 5.5-2 29.3l-.2 27.4-.3-31.6c-.1-23.4.1-31.8 1-32.7 1.7-1.7 63.9-1.7 65.6 0zM97.4 303.6c1.6 1.1 7.8 1.4 33.3 1.4H162v2.3c0 1.3-.5 2.8-1.2 3.5-1.6 1.6-62 1.7-64.9.2-1.8-1-1.9-2.3-1.7-33.3l.2-32.2.6 28.3c.5 26.6.6 28.5 2.4 29.8zM607 254c1.1 1.1 2 2.8 2 3.7 0 1.7-2.1 1.8-31.3 1.5-30.5-.2-31.4-.2-34 1.8l-2.7 2.1-.3 27.2-.2 27.2-.3-30.8c-.2-29.5-.1-30.8 1.8-32.7 1.9-1.9 3.3-2 32.5-2s30.6.1 32.5 2zM94.3 311.7c1.6 1.7 4.4 1.8 33.7 1.8 29.8 0 32 .1 32 1.7 0 1-.9 2.7-2 3.8-1.9 1.9-3.3 2-32.5 2s-30.6-.1-32.5-2c-1.9-1.9-2-3.2-1.8-32.8l.2-30.7.6 27.2c.4 24.4.7 27.4 2.3 29zM610 262.9c2.7 5.2 3.5 5.1-31 5.1-30.7 0-32.1.1-34 2l-2 2v-4.3c0-2.4.5-4.8 1.2-5.5.9-.9 9.6-1.2 33-1.2 30.3 0 31.8.1 32.8 1.9zM91.7 320.2c1.5 1.7 4 1.8 33.5 1.8H157v2.3c0 4.6-.6 4.7-33.6 4.7-27.1 0-31.5-.2-32.8-1.6-1.4-1.3-1.6-5.5-1.4-32.7l.3-31.2.2 27.4c.3 23.8.6 27.7 2 29.3zM611 271c1.1 1.1 2 2.9 2 4 0 2-.7 2-32.2 2-31.7 0-32.2 0-34.5 2.2l-2.3 2.1v-3.1c0-4.3 1.6-7.9 3.7-8.5 1-.3 15.2-.5 31.6-.6 28.4-.1 29.8 0 31.7 1.9zm1.3 8.2c.9.7 1.9 2.4 2.2 3.8l.6 2.5h-32.4c-30.5 0-32.6.1-34.6 1.9l-2.1 1.9v-3.8c0-7.6-.6-7.5 34-7.5 22.9 0 31 .3 32.3 1.2zm1.9 9.5c1 .9 1.8 2.6 1.8 3.7 0 2.1-.1 2.1-31.5 1.8-26.3-.3-32.1-.1-34.5 1.2-3 1.4-3 1.4-3-1.3 0-1.4.7-3.7 1.6-4.9 1.5-2.2 1.6-2.2 32.6-2.2 27.6 0 31.4.2 33 1.7zm1.2 9.5c3.8 5.4 4.3 5.3-30.5 5-27.9-.3-32.4-.1-34.5 1.3-2.4 1.5-2.4 1.5-2.4-1.6 0-1.8.7-4.1 1.7-5.1 1.5-1.7 3.9-1.8 32.9-1.8 31.2 0 31.3 0 32.8 2.2zm.4 8c.7.7 1.2 2.3 1.2 3.8v2.5l-32-.3c-21.4-.2-32.6.1-34 .8-1.8 1-2 .8-2-2.3 0-1.8.5-3.8 1.2-4.5 1.7-1.7 63.9-1.7 65.6 0zm.6 10c.9 1.2 1.6 3.3 1.6 4.6 0 1.9-.3 2.1-1.9 1.2-2.9-1.5-64.3-1.4-65.9.2-.9.9-1.2.6-1.2-1.6 0-1.5.5-3.6 1-4.7 1-1.8 2.5-1.9 33-1.9 31.8 0 31.9 0 33.4 2.2zm-1.6 7.4c1.6 1.1 2.2 2.5 2.2 5.1 0 2.9-.2 3.3-1.4 2.4-1-.9-10.3-1.1-34-.9l-32.6.3v-2.7c0-5.5 1.5-5.8 34-5.8 25.1 0 29.9.2 31.8 1.6zM90.9 330c1.4.7 12.5 1 33.3 1l31.3-.1-.3 2.3c-.5 4.6-1.7 4.8-34.1 4.8-35.2 0-34.1.3-34-8.4 0-4 .2-4.6.9-2.9.5 1.2 1.8 2.7 2.9 3.3zm523.9 2.6c1.5 1.1 2.2 2.5 2.2 5 0 3.2-.2 3.4-2 2.4-1.3-.7-12.8-1-34-.8l-32 .3v-3.2c0-2 .7-3.6 1.8-4.2 1-.6 13.2-1.1 31.7-1.1 25.6 0 30.4.2 32.3 1.6zM88 337.5c1.1 1.3 6.1 1.5 33.6 1.5H154v2.4c0 5.3-1.8 5.6-34.5 5.6-23 0-30.5-.3-31.9-1.3-.9-.7-2-3.2-2.3-5.5-.6-4.4.4-5.4 2.7-2.7zm526.4 4.1c.9.8 1.6 3.1 1.6 4.9v3.3l-3-1.4c-2.4-1.3-8.1-1.5-34-1.2l-31 .3v-2.2c0-5.2.7-5.3 34-5.3 26.7 0 31.1.2 32.4 1.6zm-493.5 6.2l32.1-.3v2.2c0 5.2-.6 5.3-35 5.3-30.5 0-32-.1-33-1.9-.5-1.1-1-3.4-1-5.1 0-3 .1-3 2.4-1.5 2 1.3 6.8 1.5 34.5 1.3zm492.5 2.8c.9.9 1.6 3.2 1.6 5.5v3.9l-2-2c-2-2-3-2.1-34-1.8l-32 .3v-2.7c0-1.5.8-3.1 1.8-3.7 1-.7 13.4-1.1 32.4-1.1 26.6 0 30.9.2 32.2 1.6zm-493.5 6.2l32.1-.3v2.2c0 5.2-.7 5.3-34.2 5.3-34.7 0-34.8 0-34.8-6.7 0-3.3 0-3.3 2.4-1.8 2 1.4 6.7 1.5 34.5 1.3zm492.5 2.8c1 .9 1.6 3.3 1.6 6.1v4.6l-2.1-2.7-2-2.6h-32.5c-29.6 0-32.4-.1-32.4-1.7 0-.9.7-2.5 1.7-3.5 1.5-1.7 3.9-1.8 32.9-1.8 27.1 0 31.5.2 32.8 1.6zm-492.6 6.2l31.2-.3v2.5c0 1.5-.5 3.1-1.2 3.8-1.7 1.7-63.9 1.7-65.6 0-.7-.7-1.2-2.7-1.2-4.4 0-3.2.1-3.3 2.8-2.3 1.7.6 15.3.9 34 .7zm490.5 2.1c1.5 1.2 1.7 4.5 1.5 32l-.2 30.6-.6-27.3c-.4-22.8-.7-27.4-2-28.2-.9-.6-15-1-33.2-1H544v-2.4c0-1.4 1-3.2 2.3-4.1 1.9-1.4 6.1-1.5 32.3-1.3 23.7.2 30.4.6 31.7 1.7zm-494.9 6.9c18 .2 31-.1 32.8-.7 2.6-.9 2.8-.8 2.8 1.6 0 1.5-.7 3.5-1.7 4.5-1.5 1.7-3.9 1.8-32.9 1.8-31.2 0-31.3 0-32.8-2.2-.9-1.2-1.6-3.3-1.6-4.6 0-2 .3-2.3 1.8-1.6.9.5 15.2 1 31.6 1.2zm492.8 1.9c1.7 1.5 1.8 3.7 1.6 32.7l-.3 31.1-.2-27c-.3-26-.4-27-2.5-29.2l-2.1-2.3h-31.9c-27.6 0-31.8-.2-31.8-1.5 0-.8.9-2.4 2-3.5 1.9-1.9 3.3-2 32.7-2 27.1 0 30.9.2 32.5 1.7zm-449.7 62.1c-.4 2.3-1.4 3.6-3.2 4.3-1.6.6-14.4.9-32.6.7-28.2-.3-29.9-.4-31.3-2.2-.8-1.1-1.4-2.8-1.4-3.8 0-1.7 1.8-1.8 32.4-1.8 32.4 0 32.5 0 34-2.2 1.3-1.9 1.6-6.6 1.8-28.3l.3-26 .3 28c.1 15.4 0 29.5-.3 31.3zm-40.4-55c16.2-.2 30.2-.7 31.2-1.2 1.4-.7 1.7-.3 1.7 2 0 1.5-.7 3.6-1.7 4.6-1.5 1.7-3.8 1.8-32 1.8-19.1 0-31.2-.4-32.4-1-1.3-.7-1.9-2.1-1.9-4.5 0-3.3.1-3.4 2.8-2.4 1.8.6 14.6.9 32.3.7zm487.7 1.4c.9.9 1.1 9.4 1 33.3l-.3 32-.2-27.9c-.3-24.3-.6-28.2-2-29.8-1.5-1.7-4-1.8-33.5-1.8-34.3 0-33.5.1-30.8-5.1 1-1.8 2.5-1.9 32.8-1.9 23.4 0 32.1.3 33 1.2zM161 417.9c0 26.8-.2 31.2-1.6 32.5-1.3 1.4-5.7 1.6-32.8 1.6-33 0-33.6-.1-33.6-4.7V445h31.5c30.2 0 31.6-.1 33.5-2 1.9-1.9 2-3.3 2-29 0-14.9.2-27 .5-27s.5 13.9.5 30.9zm-10-23.2c0 2.2-.6 3.6-1.9 4.3-1.2.6-13.3 1-32.2 1-33.1 0-33.9-.1-33.9-5.9v-2.6h68v3.2zm452.4-.5c1.4 1.9 1.6 6.7 1.6 32.5 0 19-.4 30.4-1 30.8-.7.4-1-8.8-1-26.9 0-26.3-.1-27.7-2-29.6-1.9-1.9-3.3-2-33.5-2-33.6 0-33.3 0-29.9-4.8 1.5-2.2 1.6-2.2 32.9-2.2 31.3 0 31.4 0 32.9 2.2zM164 426.3c0 24.6-.3 30.7-1.4 32.3-1.4 1.8-2.9 1.9-33.1 1.9-30.2 0-31.7-.1-33.1-1.9-.8-1.1-1.4-2.7-1.4-3.5 0-1.4 3.7-1.6 32-1.6 29.3 0 32.1-.1 33.7-1.8 1.6-1.6 1.8-4.4 2.1-28.7.2-14.9.5-27 .8-27 .2 0 .4 13.6.4 30.3zm-14-19.1c-2 1.6-5 1.8-31.9 1.8-32.6 0-34.1-.3-34.1-5.8v-2.7l32 .3c19.4.1 32.8-.1 33.8-.7 1.4-.8 1.8-.5 2 2.2.3 2.3-.2 3.6-1.8 4.9zm450.6-4.8c1.1 1.6 1.4 7.7 1.4 32 0 17.7-.4 30.7-1 31.6-.6 1-1-8-1-26.3v-27.8l-2.5-2.4-2.4-2.5H564c-26.9 0-31-.2-31-1.5 0-.8.9-2.4 2-3.5 2-2 3-2.1 33.1-1.8 29.4.3 31.1.4 32.5 2.2zM167 434.5c0 25.6-.2 30.4-1.6 32.3-1.5 2.2-1.6 2.2-32.5 2.2-29.6 0-31-.1-32.9-2-1.1-1.1-2-2.7-2-3.5 0-1.3 4.1-1.5 31.3-1.5 26.7 0 31.6-.2 33.5-1.6 2.2-1.5 2.2-1.7 2.2-30.2 0-18.9.4-28.2 1-27.2.6.9 1 13.9 1 31.5zm-15.1-18.9c-.9 1.2-6.6 1.4-32.8 1.4-33.8 0-34.1 0-34.1-5v-2.5l32.4.3c29.3.2 32.4.1 33.7-1.4 1.3-1.6 1.4-1.4 1.7 2 .2 2.1-.2 4.4-.9 5.2zm444.9-5.4c1.5 1.5 1.7 64.4.2 65.3-.7.4-1-9.1-1-27.9 0-28.1 0-28.6-2.2-30.6-2.1-1.9-3.4-2-33-2-29 0-30.8-.1-30.8-1.8 0-4.1 1.2-4.2 34-4.2 23.2 0 31.9.3 32.8 1.2zM170 442.5c0 27.2-.2 31.6-1.6 32.9-1.3 1.4-5.7 1.6-32.8 1.6-33 0-33.6-.1-33.6-4.7V470h31.2c27.6 0 31.4-.2 33-1.7 1.7-1.5 1.8-3.8 1.8-30 0-18.7.3-28.2 1-27.8.6.4 1 12.2 1 32zm-16.5-18.9L152 426h-31.2c-27.6 0-31.4-.2-33-1.7-1-.9-1.8-2.6-1.8-3.7 0-2.1.1-2.1 32.3-1.8 32 .2 32.4.2 34.3-1.9l1.9-2.1.3 3.2c.2 1.7-.4 4.2-1.3 5.6zm439.9-4.4c2.3 3.2 2.4 60.4.1 63.4-1.3 1.7-1.4-1.4-1.5-26.9 0-27.3-.1-28.8-2-30.7-1.9-1.9-3.3-2-33-2-26.2 0-31-.2-31-1.4 0-.8.7-2.2 1.6-3 1.3-1.4 5.7-1.6 32.9-1.6 31.3 0 31.4 0 32.9 2.2zm-419.4 32c0 26.5-.2 30.9-1.6 32.2-1.3 1.4-5.7 1.6-32.9 1.6-31.3 0-31.4 0-32.9-2.2-.9-1.2-1.6-2.6-1.6-3 0-.4 14.2-.8 31.6-1l31.6-.3 1.9-2.4c1.8-2.2 1.9-4.3 1.9-30.5 0-18.5.4-27.6 1-26.6.6.9 1 14.1 1 32.2zm-19.6-17.5c-1.4 1-9 1.3-32.3 1.3-26.9 0-30.7-.2-32.3-1.7-1-.9-1.8-2.6-1.8-3.7 0-2.1.1-2.1 30.7-1.8 30.5.3 36-.2 36.5-3.2.1-.6.3.9.5 3.4.3 3.4 0 4.7-1.3 5.7zm435-6.5c2.3 3.2 2.4 60.4.1 63.4-1.3 1.7-1.4-1.3-1.5-26.5 0-27.8 0-28.5-2.2-30.8l-2.1-2.3h-30.9c-21.1 0-30.8-.3-30.8-1.1 0-.6.5-1.9 1-3 1-1.8 2.5-1.9 33-1.9 31.8 0 31.9 0 33.4 2.2zm-412 .4c.3.9.6 15.2.6 31.9 0 26.3-.2 30.6-1.6 31.9-1.3 1.4-5.7 1.6-32.9 1.6-31.3 0-31.4 0-32.9-2.2-.9-1.2-1.6-2.6-1.6-3 0-.4 14.2-.8 31.6-1 29.9-.3 31.6-.4 33-2.2 1.1-1.6 1.4-7.4 1.4-30.3 0-25.7.5-31.6 2.4-26.7zm406.5 6.1c2.1 1.8 2.1 2.2 1.9 33.7-.2 24.5-.6 32-1.5 32.4-1 .3-1.3-5.9-1.3-28.6 0-28.1-.1-28.9-2.1-30.8-2-1.8-4.2-1.9-32.5-2.2-25.3-.2-30.4-.5-30.4-1.7 0-.8 1-2.1 2.2-2.9 1.9-1.4 6.7-1.6 31.9-1.6 26.8 0 29.9.2 31.8 1.7zM182 466.6c0 27.1-.2 31.5-1.6 32.8-1.3 1.4-5.6 1.6-32 1.6-19.1 0-31.3-.4-32.5-1-1-.6-1.9-2-1.9-3 0-1.9.8-2 29.6-2 29.1 0 32.6-.3 34.6-3.4.4-.6.8-14.1.8-30 0-25.5.2-28.7 1.5-27.6 1.3 1.1 1.5 5.9 1.5 32.6zm398.4-24.4c1.4 1.9 1.6 6.7 1.6 32.1 0 28.6-.5 33.7-3 33.7-.6 0-1-11.2-1-29.4 0-29.3 0-29.5-2.2-31-1.9-1.4-6.7-1.6-32.5-1.6-16.7 0-30.3-.3-30.3-.8 0-.4.7-1.8 1.6-3 1.5-2.2 1.6-2.2 32.9-2.2 31.3 0 31.4 0 32.9 2.2zM187 474.3c0 18.6-.4 30.6-1 31.8-1 1.8-2.5 1.9-33.5 1.9-31.5 0-32.5-.1-33.5-2-.6-1.1-.8-2.5-.5-3 .4-.6 12.2-1 30.9-1 24.5 0 30.6-.3 32.2-1.4 1.8-1.4 1.9-3.1 2.2-30.8.3-25.8.5-29.1 1.8-27.4 1.1 1.6 1.4 7.4 1.4 31.9zm388.6-24.9c1.1 1.6 1.4 7.7 1.4 32.6 0 30-.3 33-3.2 33-.4 0-.8-13.1-.8-29 0-27.7-.1-29.1-2-31-1.9-1.9-3.3-2-32.5-2-16.8 0-30.5-.4-30.5-.8 0-1.3 2.3-3.9 4-4.5.8-.3 15.1-.5 31.8-.4 28.8.2 30.4.3 31.8 2.1zM191 450.6c.6 1.4 1 15.2 1 31.7 0 24.9-.2 29.6-1.6 31.5-1.5 2.2-1.6 2.2-32.6 2.2-27.6 0-31.4-.2-33-1.7-4.6-4.1-3.4-4.3 28.5-4.3 25.8 0 30.6-.2 32.5-1.6 2.2-1.5 2.2-1.7 2.2-31 0-28.8.5-33.4 3-26.8zm4.4 6c1.4 1.3 1.6 5.7 1.6 32.1 0 27.1-.2 30.9-1.7 32.5-1.5 1.7-3.9 1.8-32.9 1.8-30.9 0-31.3 0-32.8-2.2-.8-1.2-1.3-2.5-1-3 .3-.4 14.1-.8 30.6-.8 26.6 0 30.4-.2 32-1.7 1.7-1.5 1.8-3.8 1.8-31 0-16.1.2-29.3.4-29.3.3 0 1.2.7 2 1.6zm375 .6c1.4 1.9 1.6 6.7 1.6 31.9 0 28-.1 29.8-2 32-1.9 2.4-1.9 2.4-2-26.9v-29.3l-2.5-2.4-2.4-2.5H533c-17.8 0-30-.4-30-.9s.7-1.7 1.6-2.5c1.3-1.4 5.7-1.6 32.9-1.6 31.3 0 31.4 0 32.9 2.2zm-369.6 6c1.7 1.7 1.7 63.9 0 65.6-1.7 1.7-63.9 1.7-65.6 0-3.6-3.6-2-3.8 27.9-3.8 28.6 0 32.1-.3 34.1-3.4.4-.6.8-14.3.8-30.4 0-16 .4-29.2.8-29.2s1.3.5 2 1.2zm364 0c.9.9 1.2 9.6 1.2 32.8 0 31.1-.3 34-3.2 34-.4 0-.8-13.3-.8-29.5 0-28.2-.1-29.6-2-31.5-1.9-1.9-3.3-2-32-2-30.8 0-32.4-.2-28.8-3.8 1.7-1.7 63.9-1.7 65.6 0zM207 470.9c.6 1.2 1 13.3 1 32.2 0 26.7-.2 30.5-1.7 32.1-1.5 1.7-3.9 1.8-32.9 1.8h-31.3l-1.6-2.3-1.5-2.2 30.6-.5 30.6-.5 1.9-2.4c1.8-2.2 1.9-4.3 1.9-31.2 0-28 .4-31.7 3-27zm352.4.3c1.4 1.9 1.6 6.7 1.6 31.8s-.2 29.9-1.6 31.8c-.8 1.2-1.9 2.2-2.5 2.2-.5 0-.9-11.7-.9-29.7 0-26.2-.2-29.9-1.7-31.5-1.5-1.7-3.8-1.8-32-1.8-16.6 0-30.3-.3-30.3-.6s.5-1.4 1-2.5c1-1.8 2.5-1.9 33-1.9 31.8 0 31.9 0 33.4 2.2zM214 509.6c0 29.1-.1 30.5-2 32.4-1.9 1.9-3.3 2-32.5 2-30.3 0-30.5 0-32.7-2.3l-2.3-2.2 30.5-.6c16.8-.3 30.6-.6 30.7-.7.1-.1.9-.9 1.7-1.8 1.4-1.3 1.6-5.5 1.6-30.8 0-16.1.3-29.6.7-30 .4-.4 1.6.2 2.5 1.4 1.6 2 1.8 5.1 1.8 32.6zM553 477c1.9 1.9 2 3.3 2 32.1 0 30-.4 33.9-3.5 33.9-1.3 0-1.5-4.3-1.5-29.5 0-28.2-.1-29.6-2-31.5-1.9-1.9-3.3-2-32-2-16.5 0-30-.3-30-.7 0-.3.7-1.5 1.7-2.5 1.5-1.7 3.8-1.8 32.5-1.8 29.5 0 30.9.1 32.8 2zm-334.2 6.2c.9.9 1.2 9.5 1.2 32.4 0 27.1-.2 31.5-1.6 32.8-1.3 1.4-5.7 1.6-32.8 1.6-31.6 0-33.6-.2-33.6-3.7 0-1 6-1.3 29.7-1.3 26.2 0 29.9-.2 31.5-1.7 1.7-1.5 1.8-3.8 1.8-31.5 0-30.6.2-32.2 3.8-28.6zm328 0c.9.9 1.2 9.6 1.2 32.8 0 31-.3 34-3.2 34-.4 0-.8-13.5-1-30.1l-.3-30.1-2.4-1.9c-2.2-1.8-4.3-1.9-31.7-1.9-16.2 0-29.4-.4-29.4-.8 0-2.9 2.9-3.2 34-3.2 23.2 0 31.9.3 32.8 1.2zm-322 6c1.7 1.7 1.7 63.9 0 65.6-.9.9-9.5 1.2-32.4 1.2-28.4 0-31.4-.2-33-1.8-1.7-1.6-.3-1.7 28.7-2.3 16.7-.3 30.5-.6 30.6-.7.1-.1.9-1.5 1.8-3.2 1.2-2.4 1.5-7.8 1.5-31.5 0-15.7.4-28.5.8-28.5s1.3.5 2 1.2zm316.2.7c.6 1.2 1 13.4 1 32.5 0 26.4-.2 30.7-1.6 32-.8.9-2 1.6-2.5 1.6s-.9-12-.9-29.4c0-28.2-.1-29.4-2.1-32l-2-2.6h-29.5c-16.2 0-29.4-.4-29.4-.8 0-2.9 2.9-3.2 34.2-3.2 30.3 0 31.8.1 32.8 1.9zm-309.2 5.3c.9.9 1.2 9.5 1.2 32.4 0 27.1-.2 31.5-1.6 32.8-1.3 1.4-5.6 1.6-32 1.6-29.3 0-34.4-.4-34.4-3 0-.6 11-1 28.9-1 27.7 0 28.9-.1 31.5-2.1l2.6-2v-30c0-30.7.2-32.3 3.8-28.7zm302 0c.9.9 1.2 9.6 1.2 33 0 30.3-.1 31.8-1.9 32.8-1.1.5-2.2 1-2.5 1-.3 0-.6-13.4-.6-29.8 0-25.3-.2-30.1-1.6-32-1.5-2.2-1.6-2.2-31.5-2.2-16.4 0-29.9-.4-29.9-.8 0-2.9 2.9-3.2 34-3.2 23.2 0 31.9.3 32.8 1.2zm-295.6 5.5c1.7 1.5 1.8 3.9 1.8 32.9 0 31.2 0 31.3-2.2 32.8-1.9 1.4-6.7 1.6-32.1 1.6-28.5 0-33.7-.5-33.7-3 0-.5 12.4-1 29.5-1.2 26.7-.3 29.6-.5 31.2-2.1 1.6-1.6 1.8-4.6 2.1-32.2.2-16.8.6-30.5.9-30.5.4 0 1.5.7 2.5 1.7zm287.9-.7c1.8 1 1.9 2.5 1.9 33.5s-.1 32.5-1.9 33.5c-1.1.5-2.2 1-2.5 1-.3 0-.6-13.6-.6-30.2 0-29.6 0-30.2-2.2-32.5l-2.1-2.3h-29.5c-29.4 0-29.5 0-27.7-2 1.7-1.9 3.1-2 32.2-2 19.1 0 31.2.4 32.4 1zm-280.3 6.2c.9.9 1.2 9.5 1.2 32.4 0 27.1-.2 31.5-1.6 32.8-1.3 1.4-5.6 1.6-32 1.6-29.3 0-34.4-.4-34.4-3 0-.6 11.2-1 29.3-1 28.6 0 29.4-.1 31.3-2.1 1.8-2 1.9-4.2 2.2-32 .3-30.6.5-32.2 4-28.7zm274 0c.9.9 1.2 9.6 1.2 33 0 30.3-.1 31.8-1.9 32.8-1.1.5-2.2 1-2.5 1-.3 0-.6-13.8-.8-30.6l-.3-30.6-2.4-1.9c-2.2-1.8-4.3-1.9-31.3-1.9-25.7 0-28.9-.2-27.8-1.5 1.1-1.3 6-1.5 32.9-1.5 23.3 0 32 .3 32.9 1.2zm-267 5c1.7 1.7 1.7 63.9 0 65.6-.9.9-9.4 1.2-31.9 1.2-16.9 0-31.4-.3-32.3-.6-4.6-1.8 1-2.3 27.4-2.6 26.2-.3 29.1-.5 30.7-2.1 1.6-1.6 1.8-4.6 2.1-32.2.3-31.2.5-32.8 4-29.3zm260 0c.9.9 1.2 9.5 1.2 32.4 0 27.1-.2 31.5-1.6 32.8-.8.9-2.2 1.6-3 1.6-1.2 0-1.4-4.7-1.4-30.5 0-29.2-.1-30.6-2-32.5-1.9-1.9-3.3-2-31.1-2-25.8 0-29-.2-27.9-1.5 1.1-1.3 6-1.5 32.9-1.5 23.3 0 32 .3 32.9 1.2zM260 516c1.9 1.9 2 3.3 2 32.7 0 27.1-.2 30.9-1.7 32.5-1.5 1.7-3.8 1.8-32.3 1.8-25.4 0-31-.3-32.6-1.5-1.7-1.3 1.4-1.4 26.9-1.5h28.8l2.4-2.5 2.5-2.4v-30.6c0-19.7.4-30.5 1-30.5s1.9.9 3 2zm245.2-.2c1 1 1.4 8.5 1.6 32.2.3 30 .2 31-1.8 33-1.1 1.1-2.4 2-3 2-.6 0-1-10.3-1-28.9 0-30.9-.5-34.6-4.7-36.2-1.3-.5-14.9-.9-30.1-.9-24.9-.1-27.5-.2-25.7-1.6 1.7-1.3 6.6-1.4 32.7-1.2 23.5.2 31 .6 32 1.6zm-237.4 4.4c1.9 1.9 1.7 64.1-.2 65.7-2 1.7-64.8 1.1-65.4-.7-.3-.9 5.8-1.2 28.4-1.2 25.3 0 29-.2 30.6-1.7 1.7-1.5 1.8-3.8 1.8-32.5 0-29 .1-30.8 1.8-30.8 1 0 2.3.5 3 1.2zm229.6.4c1.4 1.3 1.6 5.6 1.6 32 0 19.1-.4 31.3-1 32.5-.6 1-1.9 1.9-3 1.9-1.8 0-1.9-1.2-2.2-31.1-.3-29.4-.4-31.1-2.2-32.5-1.6-1.1-7.4-1.4-30.3-1.4-15.6 0-28.3-.4-28.3-.8 0-.5.3-1.2.7-1.5.3-.4 14.7-.7 31.9-.7 27.1 0 31.5.2 32.8 1.6zm-222 4c1.4 1.3 1.6 5.7 1.6 32.9 0 31.3 0 31.4-2.2 32.9-3.2 2.3-60.4 2.4-63.4.1-1.7-1.3 1.4-1.4 26.9-1.5 27.3 0 28.8-.1 30.7-2 1.9-1.9 2-3.3 2-33 0-26.2.2-31 1.4-31 .8 0 2.2.7 3 1.6zm214 0c1.4 1.3 1.6 5.7 1.6 32.9 0 31.3 0 31.4-2.2 32.9-1.2.9-2.6 1.6-3 1.6-.4 0-.8-14.2-1-31.6-.3-29.9-.4-31.6-2.2-33-1.6-1.1-7.4-1.4-30.3-1.4-25.4 0-31.5-.5-27-2.3.6-.3 15-.6 31.9-.6 26.6-.1 30.9.1 32.2 1.5zM283.1 528c1.8 1 1.9 2.5 1.9 33 0 31.8 0 31.9-2.2 33.4-3.2 2.3-60.4 2.4-63.4.1-1.7-1.3 1.3-1.4 26.8-1.5 28.2 0 28.8 0 30.8-2.2 1.9-2.1 2-3.4 2-33 0-21.1.3-30.8 1.1-30.8.6 0 1.9.5 3 1zm198.3.6c1.4 1.3 1.6 5.7 1.6 32.9 0 31.3 0 31.4-2.2 32.9-1.2.9-2.6 1.6-3 1.6-.4 0-.8-14.2-1-31.6l-.3-31.6-2.4-1.9c-2.2-1.8-4.3-1.9-30.5-1.9-18.5 0-27.6-.4-26.6-1 .9-.6 14.1-1 32.2-1 26.5 0 30.9.2 32.2 1.6zm-189.6 3.6c1.7 1.7 1.7 63.9 0 65.6-1.5 1.5-62.5 1.7-64.8.2-1-.6 8.3-1 27.2-1h28.7l2-2.6c2-2.6 2.1-3.8 2.1-33 0-28.6.1-30.4 1.8-30.4 1 0 2.3.5 3 1.2zm182.2.7c.6 1.2 1 13.4 1 32.5 0 26.4-.2 30.7-1.6 32-.8.9-2.4 1.6-3.5 1.6-1.8 0-1.9-1.1-1.9-31.4 0-27.3-.2-31.7-1.6-33-.8-.9-1.6-1.7-1.7-1.8-.1-.1-12.8-.5-28.2-.8l-28-.6 32.2-.2c31-.2 32.3-.1 33.3 1.7zm-173.6 3.3c2.4 3.4 2.4 61.9 0 64.2-1.3 1.4-5.6 1.6-33.7 1.4l-32.2-.2 28.3-.6c28.3-.5 28.4-.5 30.3-2.9 1.8-2.2 1.9-4.3 1.9-33.2 0-29.9.1-30.9 1.9-30.9 1.1 0 2.7 1 3.5 2.2zm164.8-.5c1.7 1.5 1.8 3.8 1.8 32 0 19.1-.4 31.2-1 32.4-.6 1.1-2.1 1.9-3.5 1.9H460v-30.9c0-28.9-.1-31-1.9-33.2-1.9-2.4-2-2.4-29.8-2.9l-27.8-.6 31.4-.2c28-.2 31.6 0 33.3 1.5zm-156.8 2.9c1.4 1.3 1.6 5.7 1.6 32.8 0 22.9-.3 31.5-1.2 32.4-.9.9-9.4 1.1-33.3 1l-32-.2 28.3-.6c26.6-.5 28.5-.6 29.8-2.4 1.1-1.6 1.4-7.8 1.4-33.3 0-30.2.1-31.3 1.9-31.3 1.1 0 2.7.7 3.5 1.6zm148.4-.4c.9.9 1.2 9.6 1.2 32.8 0 33.2-.1 34-4.4 34-2.1 0-2.1-.4-2.1-31.5 0-28.8-.1-31.6-1.8-33.2-1.6-1.6-4.6-1.9-29.5-2.3l-27.7-.6 31.6-.2c23.4-.1 31.8.1 32.7 1zm-140 3c1.7 1.7 1.7 63.9 0 65.6-.9.9-9.3 1.1-32.8 1l-31.5-.2 27.7-.6c24.9-.4 27.9-.7 29.5-2.3 1.7-1.6 1.8-4.4 1.8-33.2 0-31.1 0-31.5 2.1-31.5 1.1 0 2.5.5 3.2 1.2zm132.2.7c.6 1.2 1 13.4 1 32.5 0 26.4-.2 30.7-1.6 32-.8.9-2.4 1.6-3.5 1.6-1.8 0-1.9-1.1-1.9-31.1 0-20-.4-31.7-1.1-33-.6-1.1-2-2.4-3.2-2.9-1.7-.7-.8-.9 3.5-.9 4.7-.1 5.9.3 6.8 1.8zm-123.6 1.7c1.4 1.3 1.6 5.7 1.6 32.8 0 22.9-.3 31.5-1.2 32.4-.7.7-3.4 1.2-6.1 1.2h-5l2.7-2.1 2.6-2v-32c0-30.8.1-31.9 1.9-31.9 1.1 0 2.7.7 3.5 1.6zm113.7-.6c1.8 1 1.9 2.5 1.9 32.8 0 33.7-.1 34.2-4.7 34.2H434v-31.8c0-29.1-.2-32-1.7-33.4-1-.9-2.5-1.8-3.3-2.1-.8-.3.7-.6 3.3-.6 2.7-.1 5.7.4 6.8.9zm-104.7 3.2c1.4 1.9 1.6 6.7 1.6 32.1 0 18.6-.4 30.6-1 31.8-.8 1.5-2.2 1.9-6.1 1.9h-5.1l2.3-1.9 2.4-1.9V544h2.2c1.2 0 2.9 1 3.7 2.2zm97 0c1.4 1.9 1.6 6.7 1.6 32.1 0 18.6-.4 30.6-1 31.8-.7 1.1-2.1 1.9-3.8 1.9h-2.7v-64.2l-2.4-1.9-2.3-1.9h4.5c3.6 0 4.9.5 6.1 2.2zm-88.6 1c1.7 1.7 1.7 63.9 0 65.6-.7.7-3.1 1.2-5.5 1.2H333l2-2c1.9-1.9 2-3.3 2-34v-32h2.3c1.3 0 2.8.5 3.5 1.2zm80.2.7c.6 1.2 1 13.4 1 32.5 0 32.9-.1 33.6-5.3 33.6h-2.2l.3-31.6c.2-27.3.1-32-1.3-34-1.5-2.4-1.5-2.4 2.4-2.4 3 0 4.3.5 5.1 1.9zm-71.6.7c1.4 1.3 1.6 5.7 1.6 32.8 0 22.9-.3 31.5-1.2 32.4-.7.7-3 1.2-5.2 1.2-3.7 0-3.8-.1-2.2-1.9 1.5-1.6 1.6-5 1.4-34l-.3-32.1h2.2c1.2 0 2.9.7 3.7 1.6zm62 0c1.4 1.3 1.6 5.7 1.6 32.8 0 33.3 0 33.6-5 33.6h-2.5l.3-31.6c.2-27.2 0-32-1.3-34-1.5-2.4-1.5-2.4 1.9-2.4 1.9 0 4.2.7 5 1.6zm-53.2 1.1c1.7 1.5 1.8 3.9 1.8 32.8 0 22.8-.3 31.4-1.2 32.3-.7.7-2.9 1.2-5 1.2-3.8 0-3.8 0-2.3-2.4 1.4-2 1.5-6.7 1.3-34-.3-30.6-.2-31.6 1.6-31.6 1.1 0 2.8.7 3.8 1.7zm43.9-.7c1.8 1 1.9 2.5 1.9 32.8 0 33.9 0 34.2-5 34.2h-2.5l.3-32.2c.2-21-.1-32.5-.8-33.2-.5-.5-1-1.4-1-1.8 0-1.1 4.8-1 7.1.2zm-34.1 1.9c.6 1.2 1 13.4 1 32.5 0 33.8 0 33.6-6.5 33.6h-3.3l1.4-3c1.3-2.4 1.5-8.1 1.2-34l-.3-31h2.7c1.7 0 3.1.8 3.8 1.9zm8.4.3c1.4 1.9 1.6 6.7 1.6 32.1 0 18.6-.4 30.6-1 31.8-.7 1.3-2.1 1.9-4.3 1.9h-3.2v-68h2.7c1.6 0 3.3.9 4.2 2.2zm9 0c1.4 1.9 1.6 6.7 1.6 32.1 0 18.6-.4 30.6-1 31.8-.7 1.3-2.1 1.9-4.3 1.9h-3.2v-68h2.7c1.6 0 3.3.9 4.2 2.2zm9 0c1.4 1.9 1.6 6.7 1.6 31.8 0 32.5-.3 34-5.8 34h-2.7l.3-32.6c.2-23.7 0-33-.9-34-.9-1.2-.5-1.4 2.4-1.4 2.6 0 4 .6 5.1 2.2z"/><path d="M331.9 240.9c-43.3 8-76.9 38.5-88.6 80.7-2.6 9.2-2.8 11.3-2.8 28.4 0 17.1.2 19.3 2.7 28.3 9.5 34 34.2 61.8 66 74.3 12.8 5 20.5 6.5 36.8 7.1 13.3.4 17 .2 25.9-1.6 30.8-6.4 57-25 73-52 6.5-10.8 10.4-21.1 13.1-34.2 3.1-14.6 2.4-36.9-1.4-50.8-10.5-37.8-39.9-67.1-77.7-77.7-8-2.2-11.9-2.6-25.9-2.9-9.1-.2-18.6 0-21.1.4z"/></svg>